<svg width="28" height="19" viewBox="0 0 28 19" fill="none" xmlns="http://www.w3.org/2000/svg">
<path fill-rule="evenodd" clip-rule="evenodd" d="M1.78764 18.0655C1.78764 18.3652 1.54469 18.6078 1.24523 18.6078C0.945774 18.6078 0.70282 18.3652 0.70282 18.0655V0.58782C0.70282 0.288365 0.945774 0.0454102 1.24523 0.0454102C1.54469 0.0454102 1.78764 0.288365 1.78764 0.58782V10.2744H26.6179V7.81996C26.6179 7.52051 26.8609 7.27755 27.1605 7.27755C27.4598 7.27755 27.7028 7.52051 27.7028 7.81996V18.0655C27.7028 18.3652 27.4598 18.6078 27.1605 18.6078C26.8609 18.6078 26.6179 18.3652 26.6179 18.0655V14.3726H1.78764V18.0655ZM26.6179 13.2878V11.3592H1.78764V13.2878H26.6179Z" fill="#6F7075"/>
<path fill-rule="evenodd" clip-rule="evenodd" d="M3.39639 6.59766C3.39639 4.96665 4.71852 3.64453 6.34952 3.64453C7.97976 3.64642 9.30075 4.9676 9.30264 6.59766C9.30264 8.22866 7.98052 9.55078 6.34952 9.55078C4.71852 9.55078 3.39639 8.22866 3.39639 6.59766ZM4.48122 6.59766C4.48122 7.62956 5.31761 8.46595 6.34952 8.46595C7.38085 8.46482 8.21669 7.62917 8.21782 6.59766C8.21782 5.56595 7.38122 4.72936 6.34952 4.72936C5.31761 4.72936 4.48122 5.56595 4.48122 6.59766Z" fill="#6F7075"/>
<path fill-rule="evenodd" clip-rule="evenodd" d="M24.6683 9.56021H10.8066C10.5072 9.56021 10.2642 9.31763 10.2642 9.0178V3.59368C10.2642 3.29424 10.5072 3.05127 10.8066 3.05127H19.2442C22.538 3.05505 25.2073 5.72434 25.2107 9.0178C25.2107 9.31763 24.968 9.56021 24.6683 9.56021ZM19.2442 4.1361H11.349V8.47538H24.0957C23.8166 6.00628 21.7292 4.13949 19.2442 4.1361Z" fill="#6F7075"/>
</svg>
