<svg width="27" height="31" viewBox="0 0 27 31" fill="none" xmlns="http://www.w3.org/2000/svg">
<path d="M26.727 22.7127C25.914 21.2794 24.7059 17.2368 24.7059 11.9787C24.7059 8.93436 23.5254 6.01471 21.4242 3.86203C19.3229 1.70936 16.473 0.5 13.5014 0.5C10.5298 0.5 7.67993 1.70936 5.57869 3.86203C3.47745 6.01471 2.29698 8.93436 2.29698 11.9787C2.29698 17.2383 1.08748 21.2794 0.274435 22.7127C0.0960472 23.0257 0.00139018 23.3813 1.51963e-05 23.7437C-0.00135979 24.1061 0.0905962 24.4625 0.266604 24.7768C0.442611 25.0912 0.696443 25.3524 1.00248 25.5342C1.30852 25.7159 1.65595 25.8118 2.00969 25.812H8.11181C8.32114 27.1209 8.97781 28.311 9.96455 29.1698C10.9513 30.0285 12.2039 30.5 13.4986 30.5C14.7933 30.5 16.0458 30.0285 17.0326 29.1698C18.0193 28.311 18.676 27.1209 18.8853 25.812H24.9932C25.3467 25.8112 25.6937 25.715 25.9994 25.5331C26.305 25.3511 26.5584 25.0898 26.7341 24.7756C26.9098 24.4613 27.0015 24.1051 27 23.743C26.9985 23.3808 26.9038 23.0255 26.7256 22.7127H26.727ZM13.5014 28.7553C12.661 28.755 11.8452 28.4643 11.1859 27.9302C10.5267 27.3961 10.0626 26.6498 9.86861 25.812H17.1343C16.9403 26.6498 16.4762 27.3961 15.817 27.9302C15.1577 28.4643 14.3419 28.755 13.5014 28.7553ZM25.2388 23.8989C25.2152 23.944 25.1799 23.9815 25.1368 24.0075C25.0938 24.0334 25.0446 24.0468 24.9946 24.046H2.00969C1.95974 24.0468 1.91055 24.0334 1.86749 24.0075C1.82443 23.9815 1.78915 23.944 1.76549 23.8989C1.74027 23.8541 1.727 23.8034 1.727 23.7517C1.727 23.7001 1.74027 23.6493 1.76549 23.6046C2.8529 21.6914 4.02074 17.2309 4.02074 11.9787C4.02074 9.40272 5.0196 6.93224 6.79757 5.11075C8.57555 3.28926 10.987 2.26595 13.5014 2.26595C16.0159 2.26595 18.4273 3.28926 20.2053 5.11075C21.9833 6.93224 22.9821 9.40272 22.9821 11.9787C22.9821 17.2295 24.1514 21.6841 25.2388 23.6046C25.264 23.6493 25.2773 23.7001 25.2773 23.7517C25.2773 23.8034 25.264 23.8541 25.2388 23.8989Z" fill="#CFCFCF"/>
</svg>
