<svg width="15" height="13" viewBox="0 0 15 13" fill="none" xmlns="http://www.w3.org/2000/svg">
<path fill-rule="evenodd" clip-rule="evenodd" d="M5.87514 12.3286H8.89837C11.0216 12.3286 12.0835 12.3286 12.8461 11.8262C13.1752 11.6095 13.4586 11.3298 13.6802 11.0032C14.1897 10.2512 14.1897 9.20334 14.1897 7.1089C14.1897 5.01378 14.1897 3.96656 13.6802 3.21464C13.4586 2.88797 13.1752 2.60832 12.8461 2.39163C12.3563 2.0683 11.7427 1.95278 10.8032 1.91177C10.3549 1.91177 9.96916 1.57682 9.8814 1.14276C9.81433 0.824809 9.64007 0.539878 9.38808 0.336118C9.13608 0.132357 8.82181 0.0222644 8.49836 0.0244459H6.27515C5.60302 0.0244459 5.02409 0.492687 4.89211 1.14276C4.80435 1.57682 4.41863 1.91177 3.97031 1.91177C3.0315 1.95278 2.41788 2.06899 1.92738 2.39163C1.59854 2.60836 1.31537 2.88801 1.09402 3.21464C0.583801 3.96656 0.583801 5.01378 0.583801 7.1089C0.583801 9.20334 0.583801 10.2506 1.09334 11.0032C1.31376 11.3285 1.59676 11.6081 1.92738 11.8262C2.69 12.3286 3.75194 12.3286 5.87514 12.3286ZM7.38675 4.31244C5.82139 4.31244 4.55196 5.56405 4.55196 7.10822C4.55196 8.65307 5.82139 9.90468 7.38675 9.90468C8.95211 9.90468 10.2215 8.65307 10.2215 7.1089C10.2215 5.56405 8.95211 4.31244 7.38675 4.31244ZM7.38675 5.43075C6.44795 5.43075 5.68602 6.18199 5.68602 7.1089C5.68602 8.03513 6.44795 8.78637 7.38675 8.78637C8.32556 8.78637 9.08749 8.03513 9.08749 7.1089C9.08749 6.18199 8.32556 5.43075 7.38675 5.43075ZM10.5991 4.8716C10.5991 4.56263 10.8529 4.31244 11.1665 4.31244H11.9216C12.2345 4.31244 12.489 4.56263 12.489 4.8716C12.4875 5.02123 12.427 5.16417 12.3208 5.26901C12.2145 5.37385 12.0712 5.43203 11.9223 5.43075H11.1665C11.0927 5.43148 11.0195 5.41758 10.951 5.38987C10.8826 5.36216 10.8202 5.32118 10.7675 5.26925C10.7148 5.21733 10.6729 5.15549 10.644 5.08726C10.6151 5.01903 10.5998 4.94575 10.5991 4.8716Z" fill="white"/>
</svg>
