<svg width="29" height="22" viewBox="0 0 29 22" fill="none" xmlns="http://www.w3.org/2000/svg">
<path fill-rule="evenodd" clip-rule="evenodd" d="M27.4063 19.6904H26.7063V6.59161L27.1346 6.76638C27.2228 6.80205 27.3153 6.81921 27.4063 6.81921C27.6787 6.81921 27.9388 6.66387 28.0517 6.40457C28.2014 6.05997 28.0343 5.66297 27.6779 5.51758L14.378 0.0979263C14.2045 0.0279048 14.0089 0.0279048 13.8353 0.0979263L0.535476 5.51758C0.17848 5.66302 0.0119045 6.06002 0.161692 6.40457C0.311971 6.75057 0.724966 6.9095 1.07819 6.76633L1.50661 6.59156V19.6904H0.806558C0.419705 19.6904 0.106567 19.9935 0.106567 20.3678C0.106567 20.7423 0.419705 21.0454 0.806558 21.0454H27.4063C27.7931 21.0454 28.1062 20.7423 28.1062 20.3678C28.1062 19.9935 27.7931 19.6904 27.4063 19.6904ZM22.5062 16.9806V19.6904H5.7065V16.9806H22.5062ZM5.7065 12.9164V15.6262H22.5062V12.9164H5.7065ZM22.5062 8.85163V11.5615H5.7065V8.85163H22.5062ZM23.9063 19.6904H25.3062V6.02076L14.1064 1.45697L2.90653 6.02118V19.6909H4.30651V8.85163C4.30651 8.10326 4.93323 7.49671 5.7065 7.49671H22.5062C23.2796 7.49671 23.9063 8.10326 23.9063 8.85115V19.6904Z" fill="#6F7075"/>
</svg>
