<svg width="17" height="16" viewBox="0 0 17 16" fill="none" xmlns="http://www.w3.org/2000/svg">
<path d="M15.2663 2.2377C14.8753 1.84531 14.4111 1.53404 13.9002 1.32168C13.3893 1.10931 12.8417 1 12.2887 1C11.7357 1 11.1881 1.10931 10.6772 1.32168C10.1663 1.53404 9.70211 1.84531 9.31116 2.2377L8.4998 3.05166L7.68843 2.2377C6.89874 1.44548 5.82768 1.00041 4.71089 1.00041C3.59409 1.00041 2.52303 1.44548 1.73334 2.2377C0.943646 3.02993 0.5 4.10441 0.5 5.22479C0.5 6.34516 0.943646 7.41965 1.73334 8.21187L2.5447 9.02583L8.4998 15L14.4549 9.02583L15.2663 8.21187C15.6574 7.81967 15.9677 7.354 16.1794 6.84146C16.391 6.32893 16.5 5.77958 16.5 5.22479C16.5 4.67 16.391 4.12064 16.1794 3.60811C15.9677 3.09558 15.6574 2.6299 15.2663 2.2377Z" stroke="#979797" stroke-linecap="round" stroke-linejoin="round"/>
</svg>
