<svg width="26" height="28" viewBox="0 0 26 28" fill="none" xmlns="http://www.w3.org/2000/svg">
<path d="M7.73491 0.671921H18.3755C22.429 0.671921 25.7226 4.19843 25.7226 8.53875V19.9321C25.7226 22.0185 24.9485 24.0195 23.5707 25.4948C22.1928 26.9701 20.3241 27.7989 18.3755 27.7989H7.73491C3.68136 27.7989 0.387848 24.2724 0.387848 19.9321V8.53875C0.387848 6.45234 1.16191 4.45138 2.53975 2.97606C3.9176 1.50075 5.78635 0.671921 7.73491 0.671921ZM7.48157 3.38462C6.27211 3.38462 5.1122 3.89907 4.25698 4.81478C3.40177 5.73049 2.92132 6.97247 2.92132 8.26748V20.2034C2.92132 22.9025 4.96076 25.0862 7.48157 25.0862H18.6288C19.8383 25.0862 20.9982 24.5718 21.8534 23.6561C22.7086 22.7404 23.1891 21.4984 23.1891 20.2034V8.26748C23.1891 5.56835 21.1496 3.38462 18.6288 3.38462H7.48157ZM19.7056 5.41915C20.1255 5.41915 20.5283 5.59777 20.8252 5.91573C21.1222 6.23369 21.289 6.66493 21.289 7.11459C21.289 7.56424 21.1222 7.99549 20.8252 8.31344C20.5283 8.6314 20.1255 8.81002 19.7056 8.81002C19.2856 8.81002 18.8829 8.6314 18.5859 8.31344C18.289 7.99549 18.1221 7.56424 18.1221 7.11459C18.1221 6.66493 18.289 6.23369 18.5859 5.91573C18.8829 5.59777 19.2856 5.41915 19.7056 5.41915ZM13.0552 7.45367C14.735 7.45367 16.346 8.16818 17.5338 9.44C18.7216 10.7118 19.3889 12.4368 19.3889 14.2354C19.3889 16.0341 18.7216 17.759 17.5338 19.0309C16.346 20.3027 14.735 21.0172 13.0552 21.0172C11.3754 21.0172 9.76441 20.3027 8.57662 19.0309C7.38882 17.759 6.72152 16.0341 6.72152 14.2354C6.72152 12.4368 7.38882 10.7118 8.57662 9.44C9.76441 8.16818 11.3754 7.45367 13.0552 7.45367ZM13.0552 10.1664C12.0473 10.1664 11.0807 10.5951 10.368 11.3582C9.65537 12.1213 9.255 13.1562 9.255 14.2354C9.255 15.3146 9.65537 16.3496 10.368 17.1127C11.0807 17.8758 12.0473 18.3045 13.0552 18.3045C14.0631 18.3045 15.0297 17.8758 15.7424 17.1127C16.455 16.3496 16.8554 15.3146 16.8554 14.2354C16.8554 13.1562 16.455 12.1213 15.7424 11.3582C15.0297 10.5951 14.0631 10.1664 13.0552 10.1664Z" fill="white"/>
</svg>
