<svg width="29" height="29" viewBox="0 0 29 29" fill="none" xmlns="http://www.w3.org/2000/svg">
<path d="M8.38582 6.04167C8.3855 6.68261 8.13058 7.29717 7.67714 7.75016C7.2237 8.20314 6.60889 8.45745 5.96795 8.45713C5.32701 8.45681 4.71245 8.20189 4.25946 7.74845C3.80647 7.29501 3.55217 6.68019 3.55249 6.03925C3.55281 5.39831 3.80773 4.78375 4.26117 4.33077C4.71461 3.87778 5.32943 3.62347 5.97037 3.62379C6.6113 3.62412 7.22587 3.87903 7.67885 4.33247C8.13184 4.78591 8.38614 5.40073 8.38582 6.04167ZM8.45832 10.2467H3.62499V25.375H8.45832V10.2467ZM16.095 10.2467H11.2858V25.375H16.0467V17.4363C16.0467 13.0138 21.8104 12.6029 21.8104 17.4363V25.375H26.5833V15.7929C26.5833 8.3375 18.0525 8.61542 16.0467 12.2767L16.095 10.2467Z" fill="white"/>
</svg>
