<svg width="12" height="17" viewBox="0 0 12 17" fill="none" xmlns="http://www.w3.org/2000/svg">
<path d="M5.90918 0.792725C2.87284 0.792725 0.40918 3.09665 0.40918 5.93558C0.40918 10.507 5.90918 16.7927 5.90918 16.7927C5.90918 16.7927 11.4092 10.507 11.4092 5.93558C11.4092 3.09665 8.94552 0.792725 5.90918 0.792725ZM5.90918 8.79272C5.47406 8.79272 5.04871 8.65867 4.68693 8.40751C4.32514 8.15635 4.04316 7.79938 3.87664 7.38172C3.71013 6.96406 3.66656 6.50448 3.75145 6.06109C3.83634 5.6177 4.04587 5.21043 4.35354 4.89077C4.66122 4.5711 5.05322 4.35341 5.47998 4.26522C5.90674 4.17702 6.34909 4.22229 6.75108 4.39529C7.15308 4.56829 7.49667 4.86125 7.73841 5.23714C7.98015 5.61302 8.10918 6.05494 8.10918 6.50701C8.10854 7.11302 7.87655 7.69401 7.46411 8.12252C7.05167 8.55104 6.49246 8.79206 5.90918 8.79272Z" fill="#B8D153"/>
</svg>
