<svg width="27" height="21" viewBox="0 0 27 21" fill="none" xmlns="http://www.w3.org/2000/svg">
<path d="M12.9206 8.17957C13.4729 8.17957 13.9206 8.62728 13.9206 9.17957V16.5565C13.9206 17.1088 13.4729 17.5565 12.9206 17.5565H4.22432L1.20772 19.4501C1.0715 19.5355 0.894731 19.433 0.901075 19.2723L1.02705 16.0809V9.17957C1.02705 8.62739 1.47491 8.17973 2.02705 8.17957H12.9206Z" fill="#B7B7BA"/>
<path d="M9.10858 0.645142C8.35438 0.645191 7.63119 0.944895 7.09784 1.47815C6.56443 2.01156 6.26483 2.73552 6.26483 3.48987V12.8668C6.2649 13.6211 6.5645 14.3442 7.09784 14.8776C7.6312 15.4109 8.35432 15.7105 9.10858 15.7106H20.3449C20.523 15.7106 20.6935 15.7819 20.8195 15.9078H20.8205L24.1642 19.2506C24.316 19.4028 24.5092 19.5073 24.7199 19.5494C24.9306 19.5915 25.1493 19.57 25.3478 19.4879C25.5462 19.4058 25.7157 19.2669 25.8351 19.0885C25.9546 18.9099 26.0186 18.6998 26.0187 18.485V3.48987C26.0187 2.73552 25.7191 2.01156 25.1857 1.47815C24.6523 0.944743 23.9284 0.645142 23.174 0.645142H9.10858ZM20.8303 7.50549C21.0085 7.50552 21.1798 7.57673 21.3058 7.70276C21.4318 7.82879 21.5021 8.00019 21.5021 8.17834C21.502 8.35631 21.4316 8.52702 21.3058 8.65295C21.1798 8.77899 21.0085 8.8502 20.8303 8.85022C20.652 8.85022 20.4807 8.77901 20.3547 8.65295C20.2289 8.52701 20.1585 8.35635 20.1584 8.17834C20.1584 8.00015 20.2287 7.8288 20.3547 7.70276C20.4807 7.57671 20.652 7.50549 20.8303 7.50549ZM16.1418 7.50549C16.32 7.50554 16.4914 7.57675 16.6174 7.70276C16.7433 7.82878 16.8137 8.00021 16.8137 8.17834C16.8136 8.35629 16.7431 8.52703 16.6174 8.65295C16.4914 8.77897 16.32 8.85017 16.1418 8.85022C15.9635 8.85022 15.7923 8.77901 15.6662 8.65295C15.5404 8.52701 15.47 8.35637 15.4699 8.17834C15.4699 8.00013 15.5402 7.8288 15.6662 7.70276C15.7922 7.57671 15.9635 7.50549 16.1418 7.50549ZM11.4533 7.50549C11.6314 7.50556 11.8019 7.57688 11.9279 7.70276C12.054 7.82881 12.1252 8.00008 12.1252 8.17834C12.1251 8.35648 12.0539 8.52699 11.9279 8.65295C11.8019 8.77891 11.6315 8.85015 11.4533 8.85022C11.275 8.85022 11.1038 8.77901 10.9777 8.65295C10.8519 8.527 10.7806 8.35639 10.7805 8.17834C10.7805 8.00011 10.8517 7.82881 10.9777 7.70276C11.1038 7.57671 11.275 7.50549 11.4533 7.50549Z" fill="#B7B7BA" stroke="white"/>
</svg>
