<svg width="23" height="23" viewBox="0 0 23 23" fill="none" xmlns="http://www.w3.org/2000/svg">
<path d="M22.9866 17.3741C22.7815 18.9324 22.0163 20.3628 20.8337 21.3981C19.6511 22.4334 18.132 23.0028 16.5603 23C7.42914 23 1.04061e-05 15.5709 1.04061e-05 6.43983C-0.00280712 4.8681 0.56661 3.34909 1.60191 2.1665C2.63721 0.983911 4.0676 0.218622 5.62591 0.0135674C6.01996 -0.034548 6.41902 0.0460689 6.76349 0.243384C7.10797 0.440699 7.37939 0.744129 7.53724 1.10838L9.96608 6.53068V6.54448C10.0869 6.8233 10.1368 7.12772 10.1114 7.43054C10.0859 7.73335 9.98578 8.02514 9.82003 8.27985C9.79933 8.3109 9.77748 8.33965 9.75448 8.3684L7.36014 11.2066C8.2215 12.9569 10.0523 14.7717 11.8257 15.6353L14.6248 13.2536C14.6523 13.2305 14.6811 13.209 14.7111 13.1892C14.9656 13.0195 15.2584 12.9159 15.563 12.8878C15.8676 12.8597 16.1744 12.9079 16.4556 13.0282L16.4706 13.0351L21.8883 15.4628C22.2532 15.6201 22.5574 15.8913 22.7554 16.2358C22.9533 16.5803 23.0345 16.9797 22.9866 17.3741Z" fill="white"/>
</svg>
