<svg width="13" height="15" viewBox="0 0 13 15" fill="none" xmlns="http://www.w3.org/2000/svg">
<path d="M10.3896 4.75586C11.4268 4.75586 12.2676 3.91508 12.2676 2.87793C12.2676 1.84078 11.4268 1 10.3896 1C9.3525 1 8.51172 1.84078 8.51172 2.87793C8.51172 3.91508 9.3525 4.75586 10.3896 4.75586Z" stroke="#979797" stroke-linecap="round" stroke-linejoin="round"/>
<path d="M2.87793 9.1377C3.91508 9.1377 4.75586 8.29692 4.75586 7.25977C4.75586 6.22261 3.91508 5.38184 2.87793 5.38184C1.84078 5.38184 1 6.22261 1 7.25977C1 8.29692 1.84078 9.1377 2.87793 9.1377Z" stroke="#979797" stroke-linecap="round" stroke-linejoin="round"/>
<path d="M10.3896 13.5195C11.4268 13.5195 12.2676 12.6788 12.2676 11.6416C12.2676 10.6044 11.4268 9.76367 10.3896 9.76367C9.3525 9.76367 8.51172 10.6044 8.51172 11.6416C8.51172 12.6788 9.3525 13.5195 10.3896 13.5195Z" stroke="#979797" stroke-linecap="round" stroke-linejoin="round"/>
<path d="M4.49908 8.205L8.7745 10.6964" stroke="#979797" stroke-linecap="round" stroke-linejoin="round"/>
<path d="M8.76824 3.82317L4.49908 6.31455" stroke="#979797" stroke-linecap="round" stroke-linejoin="round"/>
</svg>
