<svg width="23" height="23" viewBox="0 0 23 23" fill="none" xmlns="http://www.w3.org/2000/svg">
<path fill-rule="evenodd" clip-rule="evenodd" d="M9.34373 12.0154H22.0608C22.4154 12.0154 22.7028 12.304 22.7028 12.6599V14.7883C22.7028 15.0841 22.5043 15.3334 22.2337 15.4092V17.2657C22.2337 18.7654 21.2866 20.0469 19.9612 20.5401L20.2938 21.0461C20.4891 21.3431 20.4073 21.7429 20.1114 21.9389C20.0025 22.0109 19.8797 22.0454 19.7583 22.0454C19.5498 22.0454 19.3452 21.9437 19.2219 21.7557L18.5649 20.7564H4.84077L4.18391 21.7557C4.06049 21.9437 3.85592 22.0454 3.64734 22.0454C3.52596 22.0454 3.40329 22.0111 3.29435 21.9389C2.99834 21.7429 2.91661 21.3431 3.11195 21.0461L3.44448 20.5401C2.11916 20.0469 1.172 18.7654 1.172 17.2657V15.4092C0.901336 15.3334 0.70282 15.0841 0.70282 14.7883V12.6599C0.70282 12.304 0.990325 12.0154 1.34495 12.0154H2.02815V2.48105C2.02815 1.13802 3.11668 0.0454102 4.45469 0.0454102C5.49269 0.0454102 6.41548 0.70786 6.75098 1.69386L6.99768 2.42202C8.32017 2.33165 9.57713 3.1719 9.96283 4.50054L10.1536 5.15779C10.2013 5.32189 10.182 5.49831 10.1001 5.64815C10.0181 5.79803 9.88023 5.90909 9.71674 5.95692L5.41048 7.21633C5.08122 7.31989 4.70382 7.11163 4.61436 6.7778L4.42362 6.12055C4.04296 4.80918 4.63284 3.4417 5.76725 2.79404L5.53541 2.10967C5.37774 1.6463 4.94329 1.33447 4.45469 1.33447C3.82481 1.33447 3.31241 1.84881 3.31241 2.48105V12.0154H4.59795C4.64002 11.7003 4.90822 11.457 5.23368 11.457H8.708C9.03345 11.457 9.30167 11.7003 9.34373 12.0154ZM8.741 4.89958L8.72983 4.86114C8.52637 4.16014 7.88584 3.70386 7.19254 3.70386C7.04468 3.70386 6.89442 3.72462 6.74554 3.76818C5.89822 4.01599 5.40971 4.90946 5.65661 5.75995L5.66779 5.79841L8.741 4.89958ZM5.8758 12.7461H8.06587V16.9126H5.8758V12.7461ZM20.9494 15.2592C20.9494 14.8841 21.135 14.5516 21.4186 14.3493L21.4187 13.3044H9.35018V17.5572C9.35018 17.9131 9.06268 18.2017 8.70805 18.2017H5.23371C4.87909 18.2017 4.59159 17.9131 4.59159 17.5572V13.3044H1.98707V14.3493C2.2708 14.5516 2.45625 14.8841 2.45625 15.2592V17.2657C2.45625 18.4798 3.44019 19.4674 4.64959 19.4674H18.7561C19.9655 19.4674 20.9494 18.4798 20.9494 17.2657V15.2592Z" fill="#6F7075"/>
</svg>
