<svg width="26" height="21" viewBox="0 0 26 21" fill="none" xmlns="http://www.w3.org/2000/svg">
<path d="M13.0061 0C13.6841 0.00380964 15.3803 0.020318 17.1832 0.0927013L17.823 0.120638C19.6373 0.20572 21.4504 0.353027 22.3505 0.603193C23.5503 0.940982 24.4924 1.92387 24.8111 3.17089C25.3189 5.15191 25.3824 9.01489 25.39 9.95079L25.3913 10.1438V10.3648C25.3824 11.3007 25.3189 15.1649 24.8111 17.1447C24.4886 18.3955 23.5453 19.3797 22.3505 19.7124C21.4504 19.9625 19.6373 20.1098 17.823 20.1949L17.1832 20.2241C15.3803 20.2952 13.6841 20.313 13.0061 20.3156L12.7077 20.3168H12.384C10.9493 20.3079 4.94901 20.2432 3.03949 19.7124C1.84096 19.3746 0.897628 18.3917 0.578951 17.1447C0.0710993 15.1637 0.00761777 11.3007 0 10.3648V9.95079C0.00761777 9.01489 0.0710993 5.15064 0.578951 3.17089C0.901436 1.92006 1.84477 0.935902 3.04076 0.604463C4.94901 0.072383 10.9505 0.00761929 12.3852 0H13.0061ZM10.1558 5.71447V14.6036L17.7735 10.159L10.1558 5.71447Z" fill="white"/>
</svg>
